<svg width="1600" height="460" viewBox="0 0 1600 460" fill="none" xmlns="http://www.w3.org/2000/svg" role="img" aria-label="Yassin Mahmoud delivered proof portfolio banner">
  <defs>
    <linearGradient id="bg" x1="0" y1="0" x2="1600" y2="460" gradientUnits="userSpaceOnUse">
      <stop stop-color="#E8F1FF"/>
      <stop offset="0.52" stop-color="#F4FBFF"/>
      <stop offset="1" stop-color="#E8FFF6"/>
    </linearGradient>
    <linearGradient id="ink" x1="100" y1="100" x2="1400" y2="340" gradientUnits="userSpaceOnUse">
      <stop stop-color="#0B66FF"/>
      <stop offset="0.55" stop-color="#0A8CA8"/>
      <stop offset="1" stop-color="#F59E0B"/>
    </linearGradient>
    <filter id="blur" x="-20%" y="-20%" width="140%" height="140%">
      <feGaussianBlur stdDeviation="28"/>
    </filter>
  </defs>

  <rect width="1600" height="460" rx="28" fill="url(#bg)"/>

  <g opacity="0.35" filter="url(#blur)">
    <circle cx="1340" cy="90" r="130" fill="#0B66FF"/>
    <circle cx="1430" cy="320" r="120" fill="#00A88F"/>
    <circle cx="190" cy="70" r="110" fill="#FFD27A"/>
  </g>

  <rect x="54" y="54" width="1492" height="352" rx="24" fill="white" fill-opacity="0.64" stroke="#2D4C8A" stroke-opacity="0.14"/>

  <g opacity="0.17">
    <path d="M90 120H1510" stroke="#2D4C8A"/>
    <path d="M90 170H1510" stroke="#2D4C8A"/>
    <path d="M90 220H1510" stroke="#2D4C8A"/>
    <path d="M90 270H1510" stroke="#2D4C8A"/>
    <path d="M90 320H1510" stroke="#2D4C8A"/>
  </g>

  <text x="106" y="166" fill="#0E1A35" font-family="Segoe UI, Arial, sans-serif" font-size="22" font-weight="700" letter-spacing="1.5">DELIVERED PROOF PORTFOLIO</text>
  <text x="102" y="248" fill="url(#ink)" font-family="Segoe UI, Arial, sans-serif" font-size="74" font-weight="900">Yassin Mahmoud</text>
  <text x="106" y="302" fill="#33456F" font-family="Segoe UI, Arial, sans-serif" font-size="30" font-weight="700">Full-Stack Web Developer • Product Builder • Systems Engineer</text>
  <text x="106" y="350" fill="#536587" font-family="Segoe UI, Arial, sans-serif" font-size="24" font-weight="600">Public Profile: Verified Delivery Evidence • Private Source Implementation</text>

  <g>
    <rect x="1155" y="91" width="310" height="66" rx="14" fill="#0B66FF" fill-opacity="0.14"/>
    <text x="1181" y="133" fill="#0B66FF" font-family="Segoe UI, Arial, sans-serif" font-size="24" font-weight="800">PROOF FIRST</text>

    <rect x="1155" y="173" width="310" height="66" rx="14" fill="#00A88F" fill-opacity="0.16"/>
    <text x="1181" y="215" fill="#0C7C6E" font-family="Segoe UI, Arial, sans-serif" font-size="24" font-weight="800">DELIVERY VERIFIED</text>

    <rect x="1155" y="255" width="310" height="66" rx="14" fill="#F59E0B" fill-opacity="0.2"/>
    <text x="1181" y="297" fill="#8D5B00" font-family="Segoe UI, Arial, sans-serif" font-size="24" font-weight="800">SOURCE PRIVATE</text>
  </g>
</svg>
